# xmcd
#
# Track frame offsets: 
#        150
#        16633
#        37657
#        56217
#        70505
#        86895
#        104464
#        121999
#        138647
#        155549
#        175570
#        191829
#
# Disc length: 2789 seconds
#
# Revision: 0
# Processed by: cddbd v1.5.2PL0 Copyright (c) Steve Scherf et al.
# Submitted via: ExactAudioCopy v0.99pb5
#
DISCID=990ae30c
DTITLE=Darden Smith - Everything
DYEAR=2017
DGENRE=Classic Rock
TTITLE0=Blessings
TTITLE1=Firefly
TTITLE2=Against The Grain
TTITLE3=I Love You, Goodbye
TTITLE4=Everything
TTITLE5=Love Will Win The War
TTITLE6=Soul Searching
TTITLE7=Me Too
TTITLE8=Carousel
TTITLE9=Home
TTITLE10=Forever
TTITLE11=Can You See The Moon
EXTD=
EXTT0=
EXTT1=
EXTT2=
EXTT3=
EXTT4=
EXTT5=
EXTT6=
EXTT7=
EXTT8=
EXTT9=
EXTT10=
EXTT11=
PLAYORDER=
